<mxfile host="app.diagrams.net" modified="2023-10-20T06:38:24.712Z" agent="Mozilla/5.0 (Windows NT 10.0; Win64; x64) AppleWebKit/537.36 (KHTML, like Gecko) Chrome/117.0.0.0 Safari/537.36 Edg/117.0.2045.31" etag="sikMf_Q5PMZPOV7pcgoL" version="21.8.2" type="github">
  <diagram id="C5RBs43oDa-KdzZeNtuy" name="Page-1">
    <mxGraphModel dx="1328" dy="719" grid="1" gridSize="10" guides="1" tooltips="1" connect="1" arrows="1" fold="1" page="1" pageScale="1" pageWidth="827" pageHeight="1169" math="0" shadow="0">
      <root>
        <mxCell id="WIyWlLk6GJQsqaUBKTNV-0" />
        <mxCell id="WIyWlLk6GJQsqaUBKTNV-1" parent="WIyWlLk6GJQsqaUBKTNV-0" />
        <mxCell id="_alnSDJfrMN8fhZpkeya-10" value="" style="rounded=0;whiteSpace=wrap;html=1;fillColor=#f5f5f5;fontColor=#333333;strokeColor=none;" vertex="1" parent="WIyWlLk6GJQsqaUBKTNV-1">
          <mxGeometry x="250" y="340" width="260" height="200" as="geometry" />
        </mxCell>
        <mxCell id="_alnSDJfrMN8fhZpkeya-4" value="" style="edgeStyle=orthogonalEdgeStyle;rounded=0;orthogonalLoop=1;jettySize=auto;html=1;" edge="1" parent="WIyWlLk6GJQsqaUBKTNV-1" source="_alnSDJfrMN8fhZpkeya-0" target="_alnSDJfrMN8fhZpkeya-1">
          <mxGeometry relative="1" as="geometry" />
        </mxCell>
        <mxCell id="_alnSDJfrMN8fhZpkeya-6" value="业务人员撰写" style="edgeLabel;html=1;align=center;verticalAlign=middle;resizable=0;points=[];" vertex="1" connectable="0" parent="_alnSDJfrMN8fhZpkeya-4">
          <mxGeometry x="-0.2669" relative="1" as="geometry">
            <mxPoint y="5" as="offset" />
          </mxGeometry>
        </mxCell>
        <mxCell id="_alnSDJfrMN8fhZpkeya-0" value="业务需求" style="rounded=1;whiteSpace=wrap;html=1;" vertex="1" parent="WIyWlLk6GJQsqaUBKTNV-1">
          <mxGeometry x="320" y="180" width="120" height="40" as="geometry" />
        </mxCell>
        <mxCell id="_alnSDJfrMN8fhZpkeya-5" value="" style="edgeStyle=orthogonalEdgeStyle;rounded=0;orthogonalLoop=1;jettySize=auto;html=1;" edge="1" parent="WIyWlLk6GJQsqaUBKTNV-1" source="_alnSDJfrMN8fhZpkeya-1" target="_alnSDJfrMN8fhZpkeya-2">
          <mxGeometry relative="1" as="geometry" />
        </mxCell>
        <mxCell id="_alnSDJfrMN8fhZpkeya-7" value="Compile" style="edgeLabel;html=1;align=center;verticalAlign=middle;resizable=0;points=[];" vertex="1" connectable="0" parent="_alnSDJfrMN8fhZpkeya-5">
          <mxGeometry x="-0.1846" relative="1" as="geometry">
            <mxPoint as="offset" />
          </mxGeometry>
        </mxCell>
        <mxCell id="_alnSDJfrMN8fhZpkeya-1" value="DSL/规则" style="rounded=1;whiteSpace=wrap;html=1;fillColor=#ffe6cc;strokeColor=#d79b00;" vertex="1" parent="WIyWlLk6GJQsqaUBKTNV-1">
          <mxGeometry x="320" y="270" width="120" height="40" as="geometry" />
        </mxCell>
        <mxCell id="_alnSDJfrMN8fhZpkeya-8" value="" style="edgeStyle=orthogonalEdgeStyle;rounded=0;orthogonalLoop=1;jettySize=auto;html=1;" edge="1" parent="WIyWlLk6GJQsqaUBKTNV-1" source="_alnSDJfrMN8fhZpkeya-2" target="_alnSDJfrMN8fhZpkeya-3">
          <mxGeometry relative="1" as="geometry" />
        </mxCell>
        <mxCell id="_alnSDJfrMN8fhZpkeya-9" value="StartRunning" style="edgeLabel;html=1;align=center;verticalAlign=middle;resizable=0;points=[];" vertex="1" connectable="0" parent="_alnSDJfrMN8fhZpkeya-8">
          <mxGeometry x="-0.2334" y="-1" relative="1" as="geometry">
            <mxPoint x="1" as="offset" />
          </mxGeometry>
        </mxCell>
        <mxCell id="_alnSDJfrMN8fhZpkeya-2" value="可执行Statement" style="rounded=1;whiteSpace=wrap;html=1;fillColor=#d5e8d4;strokeColor=#82b366;" vertex="1" parent="WIyWlLk6GJQsqaUBKTNV-1">
          <mxGeometry x="320" y="380" width="120" height="40" as="geometry" />
        </mxCell>
        <mxCell id="_alnSDJfrMN8fhZpkeya-14" value="" style="edgeStyle=orthogonalEdgeStyle;rounded=0;orthogonalLoop=1;jettySize=auto;html=1;" edge="1" parent="WIyWlLk6GJQsqaUBKTNV-1" source="_alnSDJfrMN8fhZpkeya-3" target="_alnSDJfrMN8fhZpkeya-13">
          <mxGeometry relative="1" as="geometry" />
        </mxCell>
        <mxCell id="_alnSDJfrMN8fhZpkeya-17" value="Statement Callback" style="edgeLabel;html=1;align=center;verticalAlign=middle;resizable=0;points=[];" vertex="1" connectable="0" parent="_alnSDJfrMN8fhZpkeya-14">
          <mxGeometry x="-0.1824" y="1" relative="1" as="geometry">
            <mxPoint x="13" y="1" as="offset" />
          </mxGeometry>
        </mxCell>
        <mxCell id="_alnSDJfrMN8fhZpkeya-3" value="EngineRuntime" style="rounded=1;whiteSpace=wrap;html=1;fillColor=#d5e8d4;strokeColor=#82b366;" vertex="1" parent="WIyWlLk6GJQsqaUBKTNV-1">
          <mxGeometry x="320" y="470" width="120" height="40" as="geometry" />
        </mxCell>
        <mxCell id="_alnSDJfrMN8fhZpkeya-12" value="" style="edgeStyle=orthogonalEdgeStyle;rounded=0;orthogonalLoop=1;jettySize=auto;html=1;" edge="1" parent="WIyWlLk6GJQsqaUBKTNV-1" source="_alnSDJfrMN8fhZpkeya-11" target="_alnSDJfrMN8fhZpkeya-3">
          <mxGeometry relative="1" as="geometry" />
        </mxCell>
        <mxCell id="_alnSDJfrMN8fhZpkeya-15" value="Endless stream" style="edgeLabel;html=1;align=center;verticalAlign=middle;resizable=0;points=[];" vertex="1" connectable="0" parent="_alnSDJfrMN8fhZpkeya-12">
          <mxGeometry x="-0.2007" y="-2" relative="1" as="geometry">
            <mxPoint x="2" y="-2" as="offset" />
          </mxGeometry>
        </mxCell>
        <mxCell id="_alnSDJfrMN8fhZpkeya-11" value="Events" style="rounded=1;whiteSpace=wrap;html=1;fillColor=#dae8fc;strokeColor=#6c8ebf;" vertex="1" parent="WIyWlLk6GJQsqaUBKTNV-1">
          <mxGeometry x="110" y="470" width="90" height="40" as="geometry" />
        </mxCell>
        <mxCell id="_alnSDJfrMN8fhZpkeya-13" value="Alarms" style="rounded=1;whiteSpace=wrap;html=1;fillColor=#f8cecc;strokeColor=#b85450;" vertex="1" parent="WIyWlLk6GJQsqaUBKTNV-1">
          <mxGeometry x="580" y="470" width="90" height="40" as="geometry" />
        </mxCell>
        <mxCell id="_alnSDJfrMN8fhZpkeya-18" value="Engine" style="text;html=1;strokeColor=none;fillColor=none;align=center;verticalAlign=middle;whiteSpace=wrap;rounded=0;" vertex="1" parent="WIyWlLk6GJQsqaUBKTNV-1">
          <mxGeometry x="250" y="340" width="60" height="30" as="geometry" />
        </mxCell>
      </root>
    </mxGraphModel>
  </diagram>
</mxfile>
